# xmcd
#
# Track frame offsets: 
#        150
#        9091
#        20241
#        31394
#        42641
#        53615
#        64767
#        69941
#        79890
#        91900
#        102280
#        112359
#        123310
#        134514
#        145254
#        146428
#        156883
#        167511
#        177103
#        186753
#        199341
#        202589
#        214811
#        221378
#        239281
#        256823
#        274123
#        291163
#        298842
#        310130
#
# Disc length: 4288 seconds
#
# Revision: 0
# Processed by: cddbd v1.5.2PL0 Copyright (c) Steve Scherf et al.
# Submitted via: ExactAudioCopy v0.95b3
#
DISCID=bd10be1e
DTITLE=The Beatles  - Studio Collection (Unicorn)  FLAC
DYEAR=1900
DGENRE=
TTITLE0=I Want To Hold Your Hand
TTITLE1=I Want To Hold Your Hand
TTITLE2=I Want To Hold Your Hand
TTITLE3=I Want To Hold Your Hand
TTITLE4=Komm, Gib Mir Deine Hand
TTITLE5=Komm, Gib Mir Deine Hand
TTITLE6=This Boy
TTITLE7=This Boy
TTITLE8=This Boy
TTITLE9=This Boy
TTITLE10=This Boy
TTITLE11=She Loves You
TTITLE12=She Loves You
TTITLE13=She Loves You
TTITLE14=Sie Liebt Dich
TTITLE15=Sie Liebt Dich
TTITLE16=Sie Liebt Dich
TTITLE17=I'll Get You
TTITLE18=I'll Get You
TTITLE19=Eight Days A Week
TTITLE20=Here, There and Everywhere
TTITLE21=Good Morning, Good Morning
TTITLE22=Sgt. Pepper's (reprise)
TTITLE23=Blue Jay Way
TTITLE24=Blue Jay Way
TTITLE25=Blue Jay Way
TTITLE26=Blue Jay Way
TTITLE27=Can You Take Me Back
TTITLE28=Hey Jude
TTITLE29=Oh! Darling
EXTD=
EXTT0=
EXTT1=
EXTT2=
EXTT3=
EXTT4=
EXTT5=
EXTT6=
EXTT7=
EXTT8=
EXTT9=
EXTT10=
EXTT11=
EXTT12=
EXTT13=
EXTT14=
EXTT15=
EXTT16=
EXTT17=
EXTT18=
EXTT19=
EXTT20=
EXTT21=
EXTT22=
EXTT23=
EXTT24=
EXTT25=
EXTT26=
EXTT27=
EXTT28=
EXTT29=
PLAYORDER=
